<svg width="30" height="30" viewBox="0 0 30 30" fill="none" xmlns="http://www.w3.org/2000/svg">
  <path d="M18.75 0C17.9216 0 17.25 0.671573 17.25 1.5V3.75H6.5625C5.01717 3.75 3.75 5.01717 3.75 6.5625V23.4375C3.75 24.9828 5.01717 26.25 6.5625 26.25H23.4375C24.9828 26.25 26.25 24.9828 26.25 23.4375V12.75H28.5C29.3284 12.75 30 12.0784 30 11.25V1.5C30 0.671573 29.3284 0 28.5 0H18.75ZM6.5625 6.5625H17.25V11.25H18.75V6.5625C18.75 6.01522 19.2022 5.625 19.6875 5.625H24.375V11.25H21.5625C20.7331 11.25 20.0625 11.9216 20.0625 12.75V23.4375C20.0625 23.9843 19.6103 24.375 19.125 24.375H6.5625C6.01522 24.375 5.625 23.9843 5.625 23.4375V6.5625Z" fill="white"/>
</svg>
