<svg width="30" height="30" viewBox="0 0 30 30" fill="none" xmlns="http://www.w3.org/2000/svg">
  <path d="M14 2C10.134 2 7 5.13401 7 9C7 12.866 10.134 16 14 16C17.866 16 21 12.866 21 9C21 5.13401 17.866 2 14 2Z" stroke="#C9DDFF" stroke-width="2"/>
  <path d="M4 25C4 20.5817 8.02944 17 13 17H15C19.9706 17 24 20.5817 24 25C24 26.1046 23.1046 27 22 27H6C4.89543 27 4 26.1046 4 25Z" stroke="#C9DDFF" stroke-width="2"/>
  <rect x="18.5" y="1.5" width="8" height="5" rx="1" stroke="#C9DDFF" stroke-width="2"/>
  <path d="M21.5 4H23.5" stroke="#C9DDFF" stroke-width="2" stroke-linecap="round"/>
  <path d="M22.5 3V5" stroke="#C9DDFF" stroke-width="2" stroke-linecap="round"/>
</svg>
