<svg width="40" height="40" viewBox="0 0 40 40" fill="none" xmlns="http://www.w3.org/2000/svg">
  <defs>
    <!-- More distinct dotted pattern -->
    <pattern id="dots" x="0" y="0" width="5" height="5" patternUnits="userSpaceOnUse">
      <circle cx="1.25" cy="1.25" r="0.7" fill="#0E78F9" opacity="0.12"/>
    </pattern>
    <!-- Sharpened and softened inner shadow -->
    <filter id="innerShadow" x="-20%" y="-20%" width="140%" height="140%" color-interpolation-filters="sRGB">
      <feDropShadow dx="0" dy="1" stdDeviation="1" flood-color="black" flood-opacity="0.25"/>
      <feComposite in="SourceGraphic" in2="SourceAlpha" operator="over"/>
    </filter>
    <!-- Smooth blue gradient -->
    <linearGradient id="paint0_linear_2753_16477" x1="20" y1="4" x2="20" y2="36" gradientUnits="userSpaceOnUse">
      <stop stop-color="#A6C2FF"/>
      <stop offset="1" stop-color="#0D6BFF"/>
    </linearGradient>
    <!-- White to soft blue gradient for interior shapes -->
    <linearGradient id="paint1_linear_2753_16477" x1="16.95" y1="13.9" x2="16.95" y2="26.05" gradientUnits="userSpaceOnUse">
      <stop stop-color="white"/>
      <stop offset="1" stop-color="#B7C9F4"/>
    </linearGradient>
    <linearGradient id="paint2_linear_2753_16477" x1="16.95" y1="13.9" x2="16.95" y2="26.05" gradientUnits="userSpaceOnUse">
      <stop stop-color="white"/>
      <stop offset="1" stop-color="#526AA6"/>
    </linearGradient>
    <linearGradient id="paint3_linear_2753_16477" x1="28.3" y1="14" x2="28.3" y2="26" gradientUnits="userSpaceOnUse">
      <stop stop-color="white"/>
      <stop offset="1" stop-color="#B7C9F4"/>
    </linearGradient>
    <linearGradient id="paint4_linear_2753_16477" x1="28.3" y1="14" x2="28.3" y2="26" gradientUnits="userSpaceOnUse">
      <stop stop-color="white"/>
      <stop offset="1" stop-color="#526AA6"/>
    </linearGradient>
  </defs>

  <!-- Outer shape with gradient fill and inner shadow -->
  <path
    d="M15.34 3.91C15.94 3.92 16.54 3.92 17.1 3.92H22.9C23.47 3.92 24.06 3.92 24.66 3.91C26.27 3.9 27.88 3.89 28.97 3.96C32.93 4.21 35.66 6.62 36.02 10.7C36.1 12.17 36.1 13.93 36.1 16.02V16.02C36.1 16.38 36.1 16.74 36.1 17.12V22.91C36.1 23.29 36.1 23.66 36.1 24.01C36.1 26.1 36.1 27.87 36.02 29.33C35.66 33.41 32.93 35.82 28.97 36.07C27.88 36.14 26.27 36.13 24.66 36.12C24.06 36.11 23.47 36.11 22.9 36.11H17.1C16.54 36.11 15.94 36.11 15.34 36.12C13.73 36.13 12.13 36.14 11.04 36.07C7.07 35.82 4.34 33.41 3.99 29.33C3.9 27.87 3.9 26.1 3.91 24.01V24.01C3.91 23.66 3.91 23.29 3.91 22.91V17.12C3.91 16.74 3.91 16.38 3.91 16.02V16.02C3.9 13.93 3.9 12.17 3.99 10.7C4.34 6.62 7.07 4.21 11.04 3.96C12.13 3.89 13.73 3.9 15.34 3.91Z"
    fill="url(#paint0_linear_2753_16477)"
    filter="url(#innerShadow)"
  />
  
  <!-- Dotted pattern overlay for subtle texture -->
  <path
    d="M15.34 3.91C15.94 3.92 16.54 3.92 17.1 3.92H22.9C23.47 3.92 24.06 3.92 24.66 3.91C26.27 3.9 27.88 3.89 28.97 3.96C32.93 4.21 35.66 6.62 36.02 10.7C36.1 12.17 36.1 13.93 36.1 16.02V16.02C36.1 16.38 36.1 16.74 36.1 17.12V22.91C36.1 23.29 36.1 23.66 36.1 24.01C36.1 26.1 36.1 27.87 36.02 29.33C35.66 33.41 32.93 35.82 28.97 36.07C27.88 36.14 26.27 36.13 24.66 36.12C24.06 36.11 23.47 36.11 22.9 36.11H17.1C16.54 36.11 15.94 36.11 15.34 36.12C13.73 36.13 12.13 36.14 11.04 36.07C7.07 35.82 4.34 33.41 3.99 29.33C3.9 27.87 3.9 26.1 3.91 24.01V24.01C3.91 23.66 3.91 23.29 3.91 22.91V17.12C3.91 16.74 3.91 16.38 3.91 16.02V16.02C3.9 13.93 3.9 12.17 3.99 10.7C4.34 6.62 7.07 4.21 11.04 3.96C12.13 3.89 13.73 3.9 15.34 3.91Z"
    fill="url(#dots)"
    opacity="0.12"
  />

  <!-- Main interior shape with smooth gradient and stronger stroke -->
  <g>
    <path
      d="M9.14 15.39C9.14 14.57 9.8 13.91 10.62 13.91H21.02C23.09 13.91 24.77 15.59 24.77 17.66V24.57C24.77 25.39 24.1 26.05 23.28 26.05H12.89C10.82 26.05 9.14 24.38 9.14 22.31V15.39Z"
      fill="url(#paint1_linear_2753_16477)"
      filter="drop-shadow(0 1px 1px rgba(0,0,0,0.05))"
    />
    <path
      d="M9.32 15.39C9.32 14.67 9.9 14.08 10.62 14.08H21.02C22.99 14.08 24.59 15.68 24.59 17.66V24.57C24.59 25.29 24 25.88 23.28 25.88H12.89C10.92 25.88 9.32 24.28 9.32 22.31V15.39Z"
      stroke="url(#paint2_linear_2753_16477)"
      stroke-width="0.4"
    />
  </g>

  <!-- Secondary interior shape with refined gradients -->
  <g>
    <path
      d="M25.7 18.21C25.7 17.7 25.92 17.22 26.3 16.89L29.28 14.27C29.9 13.75 30.93 14.19 30.93 15.05V27.13C30.93 28.1 29.98 28.58 29.32 27.97L26.32 24.94C25.93 24.59 25.7 24.08 25.7 23.53V18.21Z"
      fill="url(#paint3_linear_2753_16477)"
      filter="drop-shadow(0 1px 1px rgba(0,0,0,0.05))"
    />
    <path
      d="M25.7 18.21C25.7 17.7 25.92 17.22 26.3 16.89L29.28 14.27C29.9 13.75 30.93 14.19 30.93 15.05V27.13C30.93 28.1 29.98 28.58 29.32 27.97L26.32 24.94C25.93 24.59 25.7 24.08 25.7 23.53V18.21Z"
      stroke="url(#paint4_linear_2753_16477)"
      stroke-width="0.4"
    />
  </g>

  <!-- Highlight circles with subtle glow -->
  <circle cx="20" cy="20" r="1.5" fill="#1C57FF" opacity="0.8" filter="drop-shadow(0 0 3px #1C57FF)"/>
  <circle cx="22" cy="18" r="0.8" fill="#1451D8" filter="drop-shadow(0 0 2px #1451D8)"/>
  <circle cx="18" cy="22" r="0.8" fill="#1451D8" filter="drop-shadow(0 0 2px #1451D8)"/>
</svg>
