<svg width="14" height="14" viewBox="0 0 14 14" fill="none" xmlns="http://www.w3.org/2000/svg">
  <defs>
    <filter id="shadow" x="-20%" y="-20%" width="140%" height="140%" color-interpolation-filters="sRGB">
      <feDropShadow dx="0" dy="1" stdDeviation="0.5" flood-color="#9bbcff" flood-opacity="0.5"/>
    </filter>
  </defs>
  <path
    d="M12.714 6.15L10.09 8.776a0.95 0.95 0 0 1-0.433 0.193 0.97 0.97 0 0 1-0.623-0.188 0.97 0.97 0 0 1-0.287-0.59 0.97 0.97 0 0 1 0.285-0.588L9.16 7.847 10.66 6.344H9.023c-1.02 0-2.01 0.337-2.82 0.96-0.806 0.62-1.38 1.493-1.633 2.48a0.95 0.95 0 0 0-0.041 0.308c0 0.25 0.1 0.484 0.278 0.66a0.922 0.922 0 0 0 0.662 0.264c0.178 0 0.347-0.07 0.47-0.195l1.67-1.666a0.95 0.95 0 0 1 1.226 0l2.83 2.8a0.95 0.95 0 0 0 1.225 0l2.835-2.835a0.95 0.95 0 0 0 0-1.344zM10.5 11.157H2.406v-6.345a0.41 0.41 0 0 0-0.123-0.285 0.38 0.38 0 0 0-0.289-0.124 0.41 0.41 0 0 0-0.286 0.124 0.37 0.37 0 0 0-0.122 0.285v6.56c0 0.29 0.11 0.57 0.315 0.776a1.087 1.087 0 0 0 0.775 0.315h8.093c0.276 0 0.53-0.1 0.721-0.288a1.02 1.02 0 0 0 0.3-0.716 1.02 1.02 0 0 0-0.3-0.717 0.97 0.97 0 0 0-0.725-0.288z"
    fill="#C9DDFF"
    filter="url(#shadow)"
  />
</svg>
